<svg width="204" height="86" viewBox="0 0 204 86" fill="none" xmlns="http://www.w3.org/2000/svg">
<path d="M0.779999 0.0639954H22.188C28.396 0.0639954 33.292 1.568 36.876 4.57599C40.524 7.51999 42.348 11.552 42.348 16.672C42.348 22.496 39.82 26.976 34.764 30.112C41.484 32.8 44.844 37.536 44.844 44.32C44.844 48.16 43.884 51.584 41.964 54.592C40.044 57.536 37.356 59.84 33.9 61.504C30.508 63.168 26.668 64 22.38 64H0.779999V0.0639954ZM18.924 26.08C22.124 26.08 24.588 25.344 26.316 23.872C28.108 22.4 29.004 20.352 29.004 17.728C29.004 12.992 26.06 10.624 20.172 10.624H14.124V26.08H18.924ZM20.268 53.344C23.724 53.344 26.412 52.544 28.332 50.944C30.316 49.344 31.308 47.2 31.308 44.512C31.308 42.08 30.476 40.192 28.812 38.848C27.148 37.504 24.748 36.832 21.612 36.832H14.124V53.344H20.268Z" fill="#696769"/>
<path d="M66.0923 65.344C60.8443 65.344 56.7163 63.744 53.7083 60.544C50.7003 57.344 49.1963 52.96 49.1963 47.392V14.56H62.7323V45.184C62.7323 47.808 63.3723 49.856 64.6523 51.328C65.9323 52.736 67.6603 53.44 69.8363 53.44C72.0123 53.44 74.0922 52.736 76.0762 51.328C78.1242 49.92 79.8203 48.032 81.1643 45.664V14.56H94.7003V64H81.1643V57.472C79.3083 59.968 77.1643 61.92 74.7323 63.328C72.3643 64.672 69.4843 65.344 66.0923 65.344Z" fill="#696769"/>
<path d="M109.436 85.504C106.492 85.504 103.419 84.8 100.219 83.392L102.236 72.256C104.668 73.472 106.716 74.08 108.38 74.08C110.364 74.08 111.836 73.44 112.796 72.16C113.82 70.88 114.908 68.64 116.06 65.44L96.7635 14.752L110.78 13.6L122.588 49.024L133.532 14.56H146.876C142.78 26.976 138.459 39.2 133.915 51.232C129.435 63.264 125.948 71.52 123.451 76C121.66 79.2 119.644 81.568 117.404 83.104C115.228 84.704 112.572 85.504 109.436 85.504Z" fill="#696769"/>
<path d="M150.427 0.0639954H164.347V64H150.427V0.0639954Z" fill="#696769"/>
<path d="M190.918 65.44C186.31 65.44 182.726 64.288 180.166 61.984C177.67 59.616 176.422 56.288 176.422 52V26.176H168.742V14.56H176.422V4C180.966 3.23199 185.446 2.65599 189.862 2.272V14.56H202.342V26.176H189.862V49.504C189.862 50.848 190.246 51.872 191.014 52.576C191.846 53.28 192.998 53.632 194.47 53.632C196.262 53.632 198.31 53.216 200.614 52.384L203.59 62.56C199.494 64.48 195.27 65.44 190.918 65.44Z" fill="#696769"/>
</svg>
