<svg width="1200" height="200" viewBox="0 0 1200 200" fill="none" xmlns="http://www.w3.org/2000/svg">
<rect width="1200" height="200" fill="url(#paint0_linear_101_2)"/>
<path d="M327.102 65.6406H359.375V74.125H348.547V100H337.93V74.125H327.102V65.6406ZM362.867 82.8438C362.867 77.2344 364.43 72.8672 367.555 69.7422C370.68 66.6172 375.031 65.0547 380.609 65.0547C386.328 65.0547 390.734 66.5938 393.828 69.6719C396.922 72.7344 398.469 77.0312 398.469 82.5625C398.469 86.5781 397.789 89.875 396.43 92.4531C395.086 95.0156 393.133 97.0156 390.57 98.4531C388.023 99.875 384.844 100.586 381.031 100.586C377.156 100.586 373.945 99.9688 371.398 98.7344C368.867 97.5 366.812 95.5469 365.234 92.875C363.656 90.2031 362.867 86.8594 362.867 82.8438ZM373.484 82.8906C373.484 86.3594 374.125 88.8516 375.406 90.3672C376.703 91.8828 378.461 92.6406 380.68 92.6406C382.961 92.6406 384.727 91.8984 385.977 90.4141C387.227 88.9297 387.852 86.2656 387.852 82.4219C387.852 79.1875 387.195 76.8281 385.883 75.3438C384.586 73.8438 382.82 73.0938 380.586 73.0938C378.445 73.0938 376.727 73.8516 375.43 75.3672C374.133 76.8828 373.484 79.3906 373.484 82.8906ZM404.211 65.6406H424.086C427.398 65.6406 429.938 66.4609 431.703 68.1016C433.484 69.7422 434.375 71.7734 434.375 74.1953C434.375 76.2266 433.742 77.9688 432.477 79.4219C431.633 80.3906 430.398 81.1562 428.773 81.7188C431.242 82.3125 433.055 83.3359 434.211 84.7891C435.383 86.2266 435.969 88.0391 435.969 90.2266C435.969 92.0078 435.555 93.6094 434.727 95.0312C433.898 96.4531 432.766 97.5781 431.328 98.4062C430.438 98.9219 429.094 99.2969 427.297 99.5312C424.906 99.8438 423.32 100 422.539 100H404.211V65.6406ZM414.922 79.1172H419.539C421.195 79.1172 422.344 78.8359 422.984 78.2734C423.641 77.6953 423.969 76.8672 423.969 75.7891C423.969 74.7891 423.641 74.0078 422.984 73.4453C422.344 72.8828 421.219 72.6016 419.609 72.6016H414.922V79.1172ZM414.922 92.6172H420.336C422.164 92.6172 423.453 92.2969 424.203 91.6562C424.953 91 425.328 90.125 425.328 89.0312C425.328 88.0156 424.953 87.2031 424.203 86.5938C423.469 85.9688 422.172 85.6562 420.312 85.6562H414.922V92.6172ZM462.688 94.3281H450.594L448.93 100H438.078L450.992 65.6406H462.57L475.484 100H464.375L462.688 94.3281ZM460.461 86.8984L456.664 74.5469L452.891 86.8984H460.461ZM478.859 65.6406H496.508C500.352 65.6406 503.227 66.5547 505.133 68.3828C507.055 70.2109 508.016 72.8125 508.016 76.1875C508.016 79.6562 506.969 82.3672 504.875 84.3203C502.797 86.2734 499.617 87.25 495.336 87.25H489.523V100H478.859V65.6406ZM489.523 80.2891H492.125C494.172 80.2891 495.609 79.9375 496.438 79.2344C497.266 78.5156 497.68 77.6016 497.68 76.4922C497.68 75.4141 497.32 74.5 496.602 73.75C495.883 73 494.531 72.625 492.547 72.625H489.523V80.2891ZM524.234 78.8828H529.906C535.109 78.8828 538.969 79.8047 541.484 81.6484C544 83.4766 545.258 86.3281 545.258 90.2031C545.258 93.375 544.102 95.8047 541.789 97.4922C539.492 99.1641 536.188 100 531.875 100H513.641V65.6406H524.234V78.8828ZM524.234 92.6172H529.672C533 92.6172 534.664 91.4141 534.664 89.0078C534.664 86.8984 533 85.8438 529.672 85.8438H524.234V92.6172ZM547.859 65.6406H558.5V100H547.859V65.6406ZM617.609 107.477H609.055V100H587.117V107.477H578.586V92.0781H582.125C584.109 86.5312 585.102 80.2734 585.102 73.3047V65.6406H613.906V92.0781H617.609V107.477ZM603.289 92.0781V74.0781H594.758V74.5234C594.758 79.2734 593.953 85.125 592.344 92.0781H603.289ZM653.352 100H642.734V74.0781H634.438V84.6484C634.438 88.9922 634.203 92.1875 633.734 94.2344C633.281 96.2656 632.203 97.7578 630.5 98.7109C628.812 99.6641 626.078 100.141 622.297 100.141C621.141 100.141 619.812 100.016 618.312 99.7656V92.8047H619.906C621.344 92.8047 622.359 92.4922 622.953 91.8672C623.547 91.2266 623.844 90.0625 623.844 88.375V65.6406H653.352V100ZM690.781 100V65.6406H673.086C669.805 65.6406 667.297 65.9219 665.562 66.4844C663.828 67.0469 662.43 68.0938 661.367 69.625C660.305 71.1406 659.773 72.9922 659.773 75.1797C659.773 77.0859 660.18 78.7344 660.992 80.125C661.805 81.5 662.922 82.6172 664.344 83.4766C665.25 84.0234 666.492 84.4766 668.07 84.8359C666.805 85.2578 665.883 85.6797 665.305 86.1016C664.914 86.3828 664.344 86.9844 663.594 87.9062C662.859 88.8281 662.367 89.5391 662.117 90.0391L656.984 100H668.984L674.656 89.5C675.375 88.1406 676.016 87.2578 676.578 86.8516C677.344 86.3203 678.211 86.0547 679.18 86.0547H680.117V100H690.781ZM680.117 79.5625H675.641C675.156 79.5625 674.219 79.4062 672.828 79.0938C672.125 78.9531 671.547 78.5938 671.094 78.0156C670.656 77.4375 670.438 76.7734 670.438 76.0234C670.438 74.9141 670.789 74.0625 671.492 73.4688C672.195 72.875 673.516 72.5781 675.453 72.5781H680.117V79.5625ZM749.938 107.477H741.383V100H719.445V107.477H710.914V92.0781H714.453C716.438 86.5312 717.43 80.2734 717.43 73.3047V65.6406H746.234V92.0781H749.938V107.477ZM735.617 92.0781V74.0781H727.086V74.5234C727.086 79.2734 726.281 85.125 724.672 92.0781H735.617ZM752.773 82.8438C752.773 77.2344 754.336 72.8672 757.461 69.7422C760.586 66.6172 764.938 65.0547 770.516 65.0547C776.234 65.0547 780.641 66.5938 783.734 69.6719C786.828 72.7344 788.375 77.0312 788.375 82.5625C788.375 86.5781 787.695 89.875 786.336 92.4531C784.992 95.0156 783.039 97.0156 780.477 98.4531C777.93 99.875 774.75 100.586 770.938 100.586C767.062 100.586 763.852 99.9688 761.305 98.7344C758.773 97.5 756.719 95.5469 755.141 92.875C753.562 90.2031 752.773 86.8594 752.773 82.8438ZM763.391 82.8906C763.391 86.3594 764.031 88.8516 765.312 90.3672C766.609 91.8828 768.367 92.6406 770.586 92.6406C772.867 92.6406 774.633 91.8984 775.883 90.4141C777.133 88.9297 777.758 86.2656 777.758 82.4219C777.758 79.1875 777.102 76.8281 775.789 75.3438C774.492 73.8438 772.727 73.0938 770.492 73.0938C768.352 73.0938 766.633 73.8516 765.336 75.3672C764.039 76.8828 763.391 79.3906 763.391 82.8906ZM793.977 65.6406H807.945L813.336 86.5469L818.703 65.6406H832.625V100H823.953V73.7969L817.227 100H809.375L802.672 73.7969V100H793.977V65.6406ZM860.562 94.3281H848.469L846.805 100H835.953L848.867 65.6406H860.445L873.359 100H862.25L860.562 94.3281ZM858.336 86.8984L854.539 74.5469L850.766 86.8984H858.336Z" fill="#327795"/>
<path d="M588.142 162.701L600 173.578L611.857 162.701L615.5 166.049L600 180.299L584.5 166.049L588.142 162.701Z" fill="black"/>
<defs>
<linearGradient id="paint0_linear_101_2" x1="1200" y1="0.000206949" x2="-34.5" y2="190.5" gradientUnits="userSpaceOnUse">
<stop stop-color="#A18CD1"/>
<stop offset="1" stop-color="#FBC2EB"/>
</linearGradient>
</defs>
</svg>
